# xmcd
#
# Track frame offsets:
# 150
# 29782
# 43818
# 60633
# 76901
# 106204
# 122414
# 138708
# 156148
# 171882
# 193598
# 208908
# 225528
# 238025
# 266813
# 283164
# 300075
# 312622
#
# Disc length: 4355 seconds
#
# Revision: 2
# Processed by: cddbd v1.5.2PL0 Copyright (c) Steve Scherf et al.
# Submitted via: CoinsHifi v1.9e contact@coinshifi.com
#
DISCID=06110112
DTITLE=COMPIL - Dancefloor Mp3 Vol.3 Cd 1
DYEAR=2007
DGENRE=Club
TTITLE0=David Vendetta - Break 4 Love ((Jerry Ropero and Chris Martin Together R
TTITLE1=Erick E - The beat is rockin' (radio edit)
TTITLE2=Mathieu Bouthier and Muttonheads - Make Your Own Kind Of Music (Radio Ed
TTITLE3=STFU - Shut The F__k Up (Mouth To Mouth)
TTITLE4=RICHARD GREY - Tainted Love (Warped Bass Remix)
TTITLE5=Bel Amour - Bel Amour 2007 (Sandy Vee Rmx radio edit)
TTITLE6=Get Far - Shining Star (Motta edit)
TTITLE7=Arias - Flyin (edit)
TTITLE8=Henrik B feat. Terri B - Soul Heaven (Radio Edit)
TTITLE9=Justice - B.E.A.T.
TTITLE10=STEVE'N KING - BOUNCE (RADIO EDIT)
TTITLE11=Flat Mode - Play This Game (Original Radio Edit)
TTITLE12=FREDERICO FRANCHI - CREAM (RADIO EDIT)
TTITLE13=Star Killers - Discoteka (Eric E Drums Rmx)
TTITLE14=ARNO COST and ARIAS - MAGENTA (radio edit) WAV
TTITLE15=Ian Carey Project - Love Won't Wait (Original Radio Edit)
TTITLE16=Bebe Brown Vs Phunk Investigation - Dark Beats
TTITLE17=Fedde le Grand pres. Flamingo - Take No Shhh (radio edit)
EXTD=
EXTT0=Remix
EXTT1=Remix
EXTT2=Remix
EXTT3=Remix
EXTT4=Remix
EXTT5=Remix
EXTT6=Remix
EXTT7=Remix
EXTT8=Remix
EXTT9=Remix
EXTT10=Remix
EXTT11=Remix
EXTT12=Remix
EXTT13=Remix
EXTT14=Remix
EXTT15=Remix
EXTT16=Remix
EXTT17=Remix
PLAYORDER=
